<?xml version="1.0" encoding="utf-8"?>
<!-- Generator: Adobe Illustrator 27.3.1, SVG Export Plug-In . SVG Version: 6.00 Build 0)  -->
<svg version="1.1" id="Layer_1" xmlns="http://www.w3.org/2000/svg" xmlns:xlink="http://www.w3.org/1999/xlink" x="0px" y="0px"
	 viewBox="0 0 500 500" style="enable-background:new 0 0 500 500;" xml:space="preserve">
<style type="text/css">
	.st0{fill:#FFFFFF;}
</style>
<path class="st0" d="M250.1,41.7c114.8,0,208.3,93.4,208.3,208.3s-93.4,208.3-208.3,208.3S41.8,364.7,41.8,249.9
	S135.3,41.7,250.1,41.7z M250.1,0C112.1,0,0.2,111.9,0.2,249.9s111.9,249.9,249.9,249.9S500,387.9,500,249.9S388.1,0,250.1,0z
	 M250.1,125c-69,0-125,55.9-125,125c0,55.2,35.8,102,85.5,118.6c6.2,1.2,8.2-2.7,8.2-6v-23.3c-34.8,7.6-42-14.7-42-14.7
	c-5.7-14.4-13.9-18.3-13.9-18.3c-11.3-7.8,0.9-7.6,0.9-7.6c12.6,0.9,19.2,12.9,19.2,12.9c11.1,19.1,29.2,13.6,36.4,10.4
	c1.1-8.1,4.4-13.6,7.9-16.7c-27.8-3.2-56.9-13.9-56.9-61.7c0-13.6,4.9-24.8,12.9-33.5c-1.3-3.2-5.6-15.9,1.2-33.1
	c0,0,10.5-3.4,34.4,12.8c10-2.8,20.7-4.1,31.3-4.2c10.6,0,21.3,1.4,31.3,4.2c23.9-16.2,34.3-12.8,34.3-12.8
	c6.8,17.2,2.5,29.9,1.2,33.1c8,8.7,12.8,19.9,12.8,33.5c0,48-29.2,58.6-57.1,61.6c4.5,3.9,8.6,11.5,8.6,23.1v34.3c0,3.3,2,7.2,8.3,6
	c49.6-16.5,85.4-63.3,85.4-118.5C375,180.9,319.1,125,250.1,125z"/>
<g>
</g>
<g>
</g>
<g>
</g>
<g>
</g>
<g>
</g>
<g>
</g>
<g>
</g>
<g>
</g>
<g>
</g>
<g>
</g>
<g>
</g>
</svg>
