<?xml version="1.0" encoding="utf-8"?>
<!-- Generator: Adobe Illustrator 27.3.1, SVG Export Plug-In . SVG Version: 6.00 Build 0)  -->
<svg version="1.1" id="Layer_1" xmlns="http://www.w3.org/2000/svg" xmlns:xlink="http://www.w3.org/1999/xlink" x="0px" y="0px"
	 viewBox="0 0 217 59.5" style="enable-background:new 0 0 217 59.5;" xml:space="preserve">
<style type="text/css">
	.st0{fill:#3F3F3F;stroke:#3F3F3F;stroke-miterlimit:10;}
</style>
<g>
	<g>
		<path class="st0" d="M97.9,20.7c3-1.6,5.7-3.6,8.1-6.1c0.1,0.1,0.3,0.1,0.4,0.3c-6.9,10.3,4.9,7.9,5.8,0.9c0-2.7-3.2,0-4.6-0.9
			c0.8-1.1,2.2-1.2,3.4-1.5c2.8-0.4,4.9-2.1,7.4-3.3c0.1,0.1,0.2,0.1,0.3,0.2c-0.1,0.6-0.3,1.2-0.4,1.6c-1.9,0-3.1,1.1-4.8,1.8
			c-0.5,0.2-0.7,0.5-0.6,1.1c1.4,5.7-10.2,12.4-9.5,3.7c-10.5,6.9-6.2,1.7-2.1-4.6c-1.6,0.7-3.3,1-4,3.2c-1.1,3.7-5.1,4.7-7.4,7.5
			c-1.7,1.9-7.7,7.4-5.7,0.9c-3.2,3.2-6.6,6.2-10.8,7.7c-5,1.1-1.1-4.8,0.4-6.5c-1.7-2.2-7.3,6.7-10.4,4.1c-6.6,5.8-11,5.2-7.3-4.3
			c1.1-2.7,2.4-5.3,3.6-7.9c0.5-1.1,0.5-2.4,1.5-3c0.7,1.6-0.7,3-1.2,4.5c-1.7,3.9-4,7.6-4.4,12c0,4.3,7.7-1.3,8-3.6
			c1.7-4.4,4.6-8.2,5.8-12.8c0.1,0,0.3,0,0.4,0c1.6,2.8-11,18.7-2.3,13.5c2.5-1.7,5-3.5,6.6-6.3c1.3-1.8,3.3-4,5.6-3.8
			c-2.5,1.6-4.5,3.6-5.8,6.2c0.1,0.1,0.1,0.2,0.2,0.3c1.9-1.1,3.9-2.1,5.8-3.2c0.1,0.1,0.2,0.2,0.3,0.3c-0.6,1-1.6,1.5-2.6,2
			c-2.7,1.6-5.8,4.4-5.7,7.7c6.7-0.6,11.1-6.9,15.3-11.4c0.1,2.4-2.2,4.2-2.5,6.6c4-1.7,6.2-5,7.6-9c0.8,1,0.1,1.7,0,2.8
			c2.2-1.4,3.3-3.4,4.6-5.5c0.7-1.2,0.5-1.3,1.8-1.9c1.2-0.5,2.4-1,3.4-1.6c1.1-0.8,1.7-2.2,3.2-2.5c1.4,2.6-2,2.7-3,4.4
			c-1.3,2.2-3,4.2-4.3,6.4C97.8,20.6,97.8,20.6,97.9,20.7z"/>
		<path class="st0" d="M43.6,48.5c2.6-7.4,5.3-14.7,7.8-22.1c1.1-3.2,1.7-6.4,2.6-9.6c0.1-0.3,0.5-0.5,0.8-0.8
			c0.1,0.4,0.4,0.8,0.3,1.1c-1.3,4.1-2.6,8.2-4,12.3c-2.6,7.7-5.4,15.3-7.8,23.1c-0.6,1.6-0.6,3.4-1.8,4.6c-0.1-0.4-0.4-0.8-0.4-1.1
			c1.6-8.1,1.7-16.6-1.7-24.3c-4-9.7-17.8-19.5-26.6-9.6c-6,6.4-9.1,15-11.1,23.4C-0.7,56.4,5.9,57.8,15,56.9
			c-13.2,3.4-17.1-4.2-12.9-16c2.6-8.4,6.2-17.7,14.1-22.5c9.1-5,18.6,3.4,23,11c3.4,5.8,4,12.5,3.9,19
			C43.3,48.5,43.4,48.5,43.6,48.5z"/>
		<path class="st0" d="M40.7,20.2c-3.5,0.4-0.9-3,0.3-4c3.6-3.9,9.2-2.8,14-3.2c13.6-0.7,28-2.6,39.9-9.8c1.2,1.6-5.1,3.6-6.2,4.1
			c-8.3,3-16.9,5.2-25.8,5.9c-5.1,0.5-10.3,0.6-15.4,0.9c-3,0.2-5.3,1.7-7,4C39.9,18.8,39.4,19.5,40.7,20.2z"/>
		<path class="st0" d="M75.4,18.1c0.3-1.1-0.1-2.7,0.8-3.4c0.7,1.1-0.3,2.4-0.5,3.5C75.6,18.2,75.5,18.2,75.4,18.1z"/>
	</g>
	<g>
		<path class="st0" d="M121,58.4c1.7-2.3,3.2-5.1,4.9-7.4c2.4-4.1,5.5-7.8,8.1-11.7c-0.5-0.2-2.5,1.5-2.7,2.1
			c-0.1,0.3-0.6,0.4-0.9,0.5c-0.9-0.8,0.5-1.7,1.2-2.1c3.8-2,6-5.4,8.2-9c2.8-4,0.4-2.6-2.7-2.3c-3.5,0.6-6.7,2-10.2,2.8
			c-1.5,0.7-3.9,0.5-4.8,1.9c-1.6,4-3.4,8-4.3,12.3c-0.7,1.7-0.7,5.9-1.9,6.8c-0.7-1.4,0.4-3.3,0.5-4.9c0.8-3.8,0.5-8-1.7-11.3
			c-0.7,2.1-13.8,14.2-14.4,9.5c0.5-0.3,0.8,0,0.9,0.6c2.2-0.4,14.8-9.4,12.4-11.4c-1.5-1-3.5,0.1-5.2,0c-3.8,0.5-7.8,0.6-11.6-0.1
			c-4-0.6-7.4-4.9-1.7-6.3c5.4-1.3,11.1,0.5,15.8,3.3c1.9,1.3,3,2,5.3,1.1c4.3-4.9,8-10.7,11.8-16c0.8,0.7-0.1,1.6-0.3,2.4
			c-1.5,4.2-3.4,8.2-4.9,12.4c6.3-1.3,12.1-4.4,18.6-4.4c0.5,0,0.7-0.2,0.5-0.7c-0.3-2.4,2.5-4,4.2-5.3c2.2-1.5,9.9-4.8,8.5,0.6
			c-1.1,3-4.1,4.7-6.4,6.8c-3.2,2.4-6.3,5-9.7,7.3c-2.3,1.3-3.4,3.7-5,5.7c-3.9,5.3-7.6,10.7-10.8,16.5
			C122.6,58,120.5,58.9,121,58.4z M137.8,35.3c0,0,0.1,0.1,0.1,0.1c4.8-3.6,9.8-7,14-11.2c5.2-6-0.8-5.1-4.8-2.9
			c-2.3,1.5-5,3.4-4.8,6.5C141.1,30.4,139.3,32.8,137.8,35.3z M102.2,34.4C102.2,34.4,102.2,34.4,102.2,34.4c3.2-0.3,6.4-0.3,9.5-1
			c-3.1-2.8-9.9-5.5-14-4.5c-0.4,0.1-0.9-0.1-1.4,0c-0.5,0.1-1,0.5-1.5,0.5c-0.7,0-1.2,0.4-1.7,0.7C91.3,33.7,99.8,34.7,102.2,34.4z
			 M117.5,42.7c1.2-3.1,2.3-6.3,3.6-9.4c0.2-0.5,0-0.6-0.4-0.5c-1.8,0.5-5.3,0.4-5.3,2.9C116.8,37.9,117.1,40.3,117.5,42.7z
			 M126.1,21.1c-0.1,0-0.1-0.1-0.2-0.1c-2.8,3.8-5.6,7.7-8.4,11.6c1,0,4.2-0.3,4.5-1.5C123,27.7,124.9,24.5,126.1,21.1z M114.2,33.9
			c0,0.1-0.1,0.1-0.1,0.2c0.6,0.9,0.8,0.5,1.3-0.1c0-0.1-0.1-0.1-0.1-0.2C115,33.8,114.6,33.9,114.2,33.9z"/>
		<path class="st0" d="M193,19.2c-6.4,0.6-4.1-2.8,0.2-2.1c0.8,0.1,0.3,1.3,1.2,1.1c7-0.9,13.9-2.6,20.8-3.8
			c5.8-0.1-9,11.9-10.1,13.3c0,0-0.1-0.1-0.1-0.1c2.4-3.1,5.4-5.7,8-8.6c2.2-2.4,5-4.8-0.6-3.3c-6,1.5-12.1,2.3-18.2,3.4
			c-1.2,1.7-2.1,3.8-3.8,5.3c-2.1,2.1-7.6,6.1-10.4,4c-0.3-0.5-0.5-0.4-0.9-0.1c-4.7,4.2-9.2,8.8-15.1,11.5
			c-7.6,3.3-6.8-2.9-4.1-7.7c-6.8,3.8-4.5-0.8-2.6-4.9c0,0-0.1-0.1-0.1-0.1c-4.3,1.6-0.8,1.9-3.6,5c-0.6,1.5-11.5,9.1-10.7,4.6
			c0.5-1.5,4-6.5,5.7-6c0.3,0.4,0.1,1-0.5,1.1c-1.7,0.6-4,3.7-4.3,5.4c4-0.9,8.4-3.5,10.2-7.3c0.6-2.3-3.7,0.8-4.9,0.5
			c-2.7-0.7,2.4-2.8,3.2-3.2c0.7-0.2,1.7,0.5,2.4,0.2c0.9-0.1,3.8-2.6,3.8-0.8c0.1,0.5-0.3,0.8-0.5,1.2c-0.2,1-3.2,5.3-1,4.9
			c3.7-1.3,6.3-4.4,7.7-7.9c0.3-0.9,1.2-0.3,1.7-0.8c2.8-3.4,5.8-6.6,8.6-9.9c1.7-1.7,12.5-14.7,13.9-12.7
			c1.3,5.9-8.5,15.5-12.3,19.9c-4.1,4.2-8.6,9.5-14.5,10.7c-0.7-0.3-1,0.2-1.3,0.6c-5.2,8.7,0.3,9,6.7,4.5
			c5.3-3.4,9.5-8.2,14.5-11.9c0.4-0.4,1-1.5,1.7-0.8c0.4,0.8-2,2.2-2.5,3.1c-0.3,0.4-0.3,0.9,0.4,0.9
			C186.5,27.7,190.9,23.6,193,19.2z M162.1,30.7c0,0.1,0.1,0.1,0.1,0.2c8.2-2.1,23.5-19.6,26.2-27.7
			C190.6-4.7,162.6,28.9,162.1,30.7z M190.2,18.4c1.1,0.4,2-0.1,2.9-0.1C192.7,17.5,191.1,17.5,190.2,18.4z M149.7,29.3
			c0,0.1,0.1,0.1,0.1,0.2c1.1-0.5,2.2-0.9,3.4-1.4C151.7,27.7,150.7,28.7,149.7,29.3z"/>
		<path class="st0" d="M188.4,15.4c0.9-1.6,2.2-3,3-4.6c0.1-0.2,0.4-0.2,0.7-0.3c0.7,1.8-2.2,4.1-3.5,5.1
			C188.5,15.5,188.5,15.5,188.4,15.4z"/>
		<path class="st0" d="M154,24.6c-0.3-0.1-0.3-0.3-0.1-0.5c1.1-1.1,1.8-2.9,3.2-3.6C158.1,22.1,155.1,23.8,154,24.6z"/>
	</g>
	<polyline class="st0" points="80.3,36.5 85.9,27.4 84,28.1 	"/>
</g>
</svg>
